<svg width="18" height="16" viewBox="0 0 18 16" fill="none" xmlns="http://www.w3.org/2000/svg">
<path d="M7.00007 6.40029C7.36777 6.40029 7.73187 6.32787 8.07159 6.18716C8.4113 6.04644 8.71997 5.8402 8.97997 5.58019C9.23998 5.32019 9.44622 5.01152 9.58694 4.67181C9.72765 4.3321 9.80007 3.96799 9.80007 3.60029C9.80007 3.23259 9.72765 2.86849 9.58694 2.52878C9.44622 2.18907 9.23998 1.8804 8.97997 1.62039C8.71997 1.36039 8.4113 1.15414 8.07159 1.01343C7.73187 0.872717 7.36777 0.800293 7.00007 0.800293C6.25747 0.800293 5.54528 1.09529 5.02017 1.62039C4.49507 2.1455 4.20007 2.85769 4.20007 3.60029C4.20007 4.3429 4.49507 5.05509 5.02017 5.58019C5.54528 6.10529 6.25747 6.40029 7.00007 6.40029V6.40029Z" stroke="#219653" stroke-width="1.6" stroke-linecap="round" stroke-linejoin="round"/>
<path d="M1 14.7201V15.2001H13V14.7201C13 12.9281 13 12.0321 12.6512 11.3473C12.3444 10.7452 11.8549 10.2557 11.2528 9.9489C10.568 9.6001 9.672 9.6001 7.88 9.6001H6.12C4.328 9.6001 3.432 9.6001 2.7472 9.9489C2.14511 10.2557 1.65559 10.7452 1.3488 11.3473C1 12.0321 1 12.9281 1 14.7201Z" stroke="#219653" stroke-width="1.6" stroke-linecap="round" stroke-linejoin="round"/>
<mask id="path-3-inside-1_878_3498" fill="white">
<path d="M14.5999 3.6001V8.4001V3.6001Z"/>
</mask>
<path d="M14.1999 3.6001V8.4001H14.9999V3.6001H14.1999ZM14.9999 8.4001V3.6001H14.1999V8.4001H14.9999Z" fill="#219653" mask="url(#path-3-inside-1_878_3498)"/>
<mask id="path-5-inside-2_878_3498" fill="white">
<path d="M12.2 6.00049H17H12.2Z"/>
</mask>
<path d="M12.2 6.40049H17V5.60049H12.2V6.40049ZM17 5.60049H12.2V6.40049H17V5.60049Z" fill="#219653" mask="url(#path-5-inside-2_878_3498)"/>
<path d="M12.2 6.0001H17M14.6 3.6001V8.4001V3.6001Z" stroke="#219653" stroke-width="1.6" stroke-linecap="round" stroke-linejoin="round"/>
</svg>
