<svg width="30" height="29" viewBox="0 0 30 29" fill="none" xmlns="http://www.w3.org/2000/svg">
<path d="M22.0694 3.54898C21.5858 3.55015 21.1071 3.64708 20.6611 3.83417C20.2151 4.02126 19.8105 4.29482 19.4708 4.63905L5.33031 18.7786L5.27487 19.0585L4.29658 23.9768L4.01758 25.2895L5.3312 25.0105L10.2495 24.0322L10.5285 23.9759L24.6689 9.83632C25.0141 9.49716 25.2882 9.09265 25.4753 8.64641C25.6625 8.20017 25.7588 7.72112 25.7588 7.23724C25.7588 6.75335 25.6625 6.2743 25.4753 5.82806C25.2882 5.38182 25.0141 4.97731 24.6689 4.63815C24.329 4.29398 23.9243 4.02053 23.4781 3.83359C23.0319 3.64665 22.5532 3.54992 22.0694 3.54898ZM22.0694 5.25338C22.5201 5.25338 22.9744 5.45906 23.4108 5.89634C24.2808 6.76553 24.2808 7.70894 23.4108 8.57903L22.7687 9.19337L20.1128 6.53839L20.7281 5.89634C21.1653 5.45906 21.6187 5.25338 22.0694 5.25338ZM18.8564 7.79658L21.5105 10.4515L10.6966 21.2646C10.1128 20.1224 9.18335 19.1935 8.04072 18.6105L18.8564 7.79658ZM6.89611 20.0645C7.42535 20.2774 7.9061 20.5951 8.30947 20.9985C8.71285 21.4019 9.03054 21.8826 9.24346 22.4119L6.3086 22.9985L6.89611 20.0645Z" fill="white"/>
</svg>
