<svg width="18" height="17" viewBox="0 0 18 17" fill="none" xmlns="http://www.w3.org/2000/svg">
<path d="M7.0002 6.6C7.3679 6.6 7.732 6.52758 8.07171 6.38686C8.41142 6.24615 8.72009 6.0399 8.98009 5.7799C9.2401 5.51989 9.44635 5.21123 9.58706 4.87151C9.72777 4.5318 9.8002 4.1677 9.8002 3.8C9.8002 3.4323 9.72777 3.0682 9.58706 2.72849C9.44635 2.38877 9.2401 2.08011 8.98009 1.8201C8.72009 1.5601 8.41142 1.35385 8.07171 1.21314C7.732 1.07242 7.3679 1 7.0002 1C6.25759 1 5.5454 1.295 5.0203 1.8201C4.49519 2.3452 4.2002 3.05739 4.2002 3.8C4.2002 4.54261 4.49519 5.2548 5.0203 5.7799C5.5454 6.305 6.25759 6.6 7.0002 6.6V6.6Z" stroke="#3F3F3F" stroke-width="1.6" stroke-linecap="round" stroke-linejoin="round"/>
<path d="M1 14.9198V15.3998H13V14.9198C13 13.1278 13 12.2318 12.6512 11.547C12.3444 10.9449 11.8549 10.4554 11.2528 10.1486C10.568 9.7998 9.672 9.7998 7.88 9.7998H6.12C4.328 9.7998 3.432 9.7998 2.7472 10.1486C2.14511 10.4554 1.65559 10.9449 1.3488 11.547C1 12.2318 1 13.1278 1 14.9198Z" stroke="#3F3F3F" stroke-width="1.6" stroke-linecap="round" stroke-linejoin="round"/>
<mask id="path-3-inside-1_1266_11684" fill="white">
<path d="M14.5996 3.7998V8.5998V3.7998Z"/>
</mask>
<path d="M14.1996 3.7998V8.5998H14.9996V3.7998H14.1996ZM14.9996 8.5998V3.7998H14.1996V8.5998H14.9996Z" fill="#3F3F3F" mask="url(#path-3-inside-1_1266_11684)"/>
<mask id="path-5-inside-2_1266_11684" fill="white">
<path d="M12.2002 6.2002H17.0002H12.2002Z"/>
</mask>
<path d="M12.2002 6.6002H17.0002V5.8002H12.2002V6.6002ZM17.0002 5.8002H12.2002V6.6002H17.0002V5.8002Z" fill="#3F3F3F" mask="url(#path-5-inside-2_1266_11684)"/>
<path d="M12.2002 6.1998H17.0002M14.6002 3.7998V8.5998V3.7998Z" stroke="#3F3F3F" stroke-width="1.6" stroke-linecap="round" stroke-linejoin="round"/>
</svg>
