<svg width="24" height="24" viewBox="0 0 24 24" fill="none" xmlns="http://www.w3.org/2000/svg">
<path d="M17.2849 4C16.9289 4.00086 16.5767 4.07219 16.2484 4.20988C15.9202 4.34757 15.6225 4.54888 15.3724 4.80221L4.96608 15.2079L4.92527 15.4139L4.20532 19.0334L4 19.9995L4.96673 19.7941L8.58623 19.0742L8.79155 19.0327L19.1979 8.62703C19.4519 8.37743 19.6537 8.07974 19.7914 7.75134C19.9291 7.42294 20 7.0704 20 6.71429C20 6.35818 19.9291 6.00564 19.7914 5.67724C19.6537 5.34884 19.4519 5.05115 19.1979 4.80155C18.9478 4.54826 18.6499 4.34702 18.3216 4.20945C17.9932 4.07187 17.6409 4.00069 17.2849 4ZM17.2849 5.25432C17.6165 5.25432 17.9508 5.40568 18.272 5.72748C18.9123 6.36715 18.9123 7.06143 18.272 7.70175L17.7995 8.15386L15.845 6.19999L16.2977 5.72748C16.6195 5.40568 16.9532 5.25432 17.2849 5.25432ZM14.9203 7.12593L16.8735 9.07979L8.91527 17.0374C8.48564 16.1968 7.80164 15.5133 6.96075 15.0842L14.9203 7.12593ZM6.11839 16.1543C6.50787 16.3109 6.86167 16.5447 7.15853 16.8416C7.45539 17.1385 7.68918 17.4923 7.84588 17.8817L5.68603 18.3134L6.11839 16.1543Z" fill="#3F3F3F"/>
</svg>
