<svg width="19" height="18" viewBox="0 0 19 18" fill="none" xmlns="http://www.w3.org/2000/svg">
<path d="M9.02497 0C7.84312 0 6.67285 0.232782 5.58097 0.685054C4.48909 1.13733 3.49698 1.80023 2.66129 2.63592C0.973536 4.32368 0.0253666 6.61276 0.0253666 8.9996C0.017499 11.0777 0.737048 13.0931 2.05928 14.6963L0.259356 16.4963C0.13448 16.6228 0.049887 16.7835 0.0162518 16.9581C-0.0173834 17.1327 0.00144614 17.3133 0.0703646 17.4772C0.145113 17.6392 0.26629 17.7752 0.418511 17.8682C0.570733 17.9611 0.747135 18.0067 0.925327 17.9992H9.02497C11.4118 17.9992 13.7009 17.051 15.3886 15.3633C17.0764 13.6755 18.0246 11.3864 18.0246 8.9996C18.0246 6.61276 17.0764 4.32368 15.3886 2.63592C13.7009 0.94817 11.4118 0 9.02497 0ZM9.02497 16.1993H3.09423L3.93119 15.3623C4.09881 15.1937 4.1929 14.9656 4.1929 14.7278C4.1929 14.4901 4.09881 14.262 3.93119 14.0934C2.75277 12.9163 2.01894 11.367 1.85471 9.70948C1.69048 8.05199 2.10602 6.38882 3.03054 5.00335C3.95505 3.61787 5.33134 2.59581 6.92492 2.11128C8.51851 1.62676 10.2308 1.70975 11.77 2.34612C13.3093 2.98249 14.5803 4.13286 15.3665 5.60125C16.1527 7.06964 16.4054 8.7652 16.0817 10.399C15.7579 12.0329 14.8777 13.5039 13.591 14.5616C12.3042 15.6192 10.6906 16.198 9.02497 16.1993Z" fill="#6C6C6C"/>
</svg>
