<svg width="16" height="4" viewBox="0 0 16 4" fill="none" xmlns="http://www.w3.org/2000/svg">
<path d="M1.6 0.400586C2.48366 0.400586 3.2 1.11693 3.2 2.00059C3.2 2.88424 2.48366 3.60059 1.6 3.60059C0.716344 3.60059 0 2.88424 0 2.00059C0 1.11693 0.716344 0.400586 1.6 0.400586Z" fill="#6C6C6C"/>
<path d="M8.00002 0.400586C8.88368 0.400586 9.60002 1.11693 9.60002 2.00059C9.60002 2.88424 8.88368 3.60059 8.00002 3.60059C7.11637 3.60059 6.40002 2.88424 6.40002 2.00059C6.40002 1.11693 7.11637 0.400586 8.00002 0.400586Z" fill="#6C6C6C"/>
<path d="M14.4 0.400586C15.2837 0.400586 16 1.11693 16 2.00059C16 2.88424 15.2837 3.60059 14.4 3.60059C13.5164 3.60059 12.8 2.88424 12.8 2.00059C12.8 1.11693 13.5164 0.400586 14.4 0.400586Z" fill="#6C6C6C"/>
</svg>
