<svg width="24" height="24" viewBox="0 0 24 24" fill="none" xmlns="http://www.w3.org/2000/svg">
<path d="M7.5 5.99957L9 2.99957H15L16.5 5.99957H7.5Z" stroke="#202124" stroke-width="2.03337" stroke-linejoin="round"/>
<path d="M20.5 5.66724H3.5C2.67157 5.66724 2 6.33881 2 7.16724V19.1672C2 19.9957 2.67157 20.6672 3.5 20.6672H20.5C21.3284 20.6672 22 19.9957 22 19.1672V7.16724C22 6.33881 21.3284 5.66724 20.5 5.66724Z" stroke="#202124" stroke-width="2.03337" stroke-linejoin="round"/>
<path d="M12 17.5002C13.0609 17.5002 14.0783 17.0788 14.8284 16.3287C15.5786 15.5785 16 14.5611 16 13.5002C16 12.4394 15.5786 11.422 14.8284 10.6718C14.0783 9.92167 13.0609 9.50024 12 9.50024C10.9391 9.50024 9.92172 9.92167 9.17157 10.6718C8.42143 11.422 8 12.4394 8 13.5002C8 14.5611 8.42143 15.5785 9.17157 16.3287C9.92172 17.0788 10.9391 17.5002 12 17.5002V17.5002Z" stroke="#202124" stroke-width="2.03337" stroke-linejoin="round"/>
</svg>
