<svg width="24" height="24" viewBox="0 0 24 24" fill="none" xmlns="http://www.w3.org/2000/svg">
<path d="M12 20C13.0508 20.0014 14.0915 19.7951 15.0623 19.3929C16.033 18.9908 16.9148 18.4008 17.6568 17.6568C18.4008 16.9148 18.9908 16.033 19.3929 15.0623C19.7951 14.0915 20.0014 13.0508 20 12C20.0013 10.9492 19.795 9.90856 19.3929 8.93778C18.9908 7.967 18.4008 7.08525 17.6568 6.34321C16.9148 5.59922 16.033 5.00921 15.0623 4.60708C14.0915 4.20496 13.0508 3.99865 12 4.00001C10.9492 3.99867 9.90856 4.20499 8.93778 4.60711C7.967 5.00924 7.08525 5.59924 6.34321 6.34321C5.59924 7.08525 5.00924 7.967 4.60711 8.93778C4.20499 9.90856 3.99867 10.9492 4.00001 12C3.99865 13.0508 4.20496 14.0915 4.60708 15.0623C5.00921 16.033 5.59922 16.9148 6.34321 17.6568C7.08525 18.4008 7.967 18.9908 8.93778 19.3929C9.90856 19.795 10.9492 20.0013 12 20V20Z" stroke="#3F3F3F" stroke-width="1.6" stroke-linejoin="round"/>
<path fill-rule="evenodd" clip-rule="evenodd" d="M12 6.79999C12.2652 6.79999 12.5196 6.90534 12.7071 7.09288C12.8946 7.28042 13 7.53477 13 7.79999C13 8.0652 12.8946 8.31956 12.7071 8.50709C12.5196 8.69463 12.2652 8.79999 12 8.79999C11.7348 8.79999 11.4804 8.69463 11.2929 8.50709C11.1054 8.31956 11 8.0652 11 7.79999C11 7.53477 11.1054 7.28042 11.2929 7.09288C11.4804 6.90534 11.7348 6.79999 12 6.79999Z" fill="#3F3F3F"/>
<path d="M12.0004 16V10.4996M12.0004 16H10M12.0004 16L14 15.9996" stroke="#3F3F3F" stroke-width="1.6" stroke-linecap="round" stroke-linejoin="round"/>
</svg>
