<svg width="16" height="15" viewBox="0 0 16 15" fill="none" xmlns="http://www.w3.org/2000/svg">
<path d="M5.2998 4.1996L6.1998 2.3996H9.7998L10.6998 4.1996H5.2998Z" stroke="white" stroke-width="1.2" stroke-linejoin="round"/>
<path d="M13.1 4.00018H2.9C2.40294 4.00018 2 4.40313 2 4.90018V12.1002C2 12.5972 2.40294 13.0002 2.9 13.0002H13.1C13.5971 13.0002 14 12.5972 14 12.1002V4.90018C14 4.40313 13.5971 4.00018 13.1 4.00018Z" stroke="white" stroke-width="1.2" stroke-linejoin="round"/>
<path d="M8.0001 11.0996C8.63662 11.0996 9.24707 10.8468 9.69715 10.3967C10.1472 9.94659 10.4001 9.33614 10.4001 8.69962C10.4001 8.0631 10.1472 7.45265 9.69715 7.00257C9.24707 6.55248 8.63662 6.29962 8.0001 6.29962C7.36358 6.29962 6.75313 6.55248 6.30304 7.00257C5.85295 7.45265 5.6001 8.0631 5.6001 8.69962C5.6001 9.33614 5.85295 9.94659 6.30304 10.3967C6.75313 10.8468 7.36358 11.0996 8.0001 11.0996V11.0996Z" stroke="white" stroke-width="1.2" stroke-linejoin="round"/>
</svg>
