<svg width="21" height="21" viewBox="0 0 21 21" fill="none" xmlns="http://www.w3.org/2000/svg">
<path d="M10.4993 19.3333C15.378 19.3333 19.3327 15.3786 19.3327 10.5C19.3327 5.62134 15.378 1.66666 10.4993 1.66666C5.6207 1.66666 1.66602 5.62134 1.66602 10.5C1.66602 15.3786 5.6207 19.3333 10.4993 19.3333Z" stroke="#3F3F3F" stroke-width="1.7" stroke-linecap="round" stroke-linejoin="round"/>
<path d="M1.66602 10.5H19.3327" stroke="#3F3F3F" stroke-width="1.7" stroke-linecap="round" stroke-linejoin="round"/>
<path d="M10.5001 19.3333C12.4514 19.3333 14.0335 15.3786 14.0335 10.5C14.0335 5.62134 12.4514 1.66666 10.5001 1.66666C8.54885 1.66666 6.9668 5.62134 6.9668 10.5C6.9668 15.3786 8.54885 19.3333 10.5001 19.3333Z" stroke="#3F3F3F" stroke-width="1.7" stroke-linecap="round" stroke-linejoin="round"/>
<path d="M4.25391 4.37891C5.07323 5.20039 6.04682 5.85187 7.11873 6.29588C8.19064 6.73989 9.33973 6.96769 10.5 6.96619C11.6602 6.96769 12.8093 6.73989 13.8812 6.29588C14.9531 5.85187 15.9267 5.20039 16.746 4.37891M16.746 16.6201C15.9267 15.7987 14.9531 15.1472 13.8812 14.7032C12.8093 14.2592 11.6602 14.0314 10.5 14.0329C9.33973 14.0314 8.19064 14.2592 7.11873 14.7032C6.04682 15.1472 5.07323 15.7987 4.25391 16.6201" stroke="#3F3F3F" stroke-width="1.7" stroke-linecap="round" stroke-linejoin="round"/>
</svg>
