<svg width="48" height="48" viewBox="0 0 48 48" fill="none" xmlns="http://www.w3.org/2000/svg">
<path d="M21.4278 32.6239C19.9392 32.1795 18.5911 31.3572 17.5146 30.2371C17.861 29.8263 18.0769 29.3215 18.1347 28.7873C18.1925 28.2531 18.0897 27.7138 17.8392 27.2384C17.5888 26.763 17.2023 26.3731 16.729 26.1187C16.2558 25.8642 15.7174 25.7567 15.1827 25.81C15.0609 25.2134 14.9997 24.6059 15 23.997C15 23.0565 15.144 22.1493 15.4122 21.297H15.45C15.9089 21.2971 16.3602 21.1803 16.7615 20.9576C17.1627 20.7348 17.5005 20.4135 17.743 20.0239C17.9855 19.6344 18.1247 19.1894 18.1475 18.7311C18.1703 18.2728 18.0759 17.8162 17.8732 17.4045C18.9283 16.422 20.2043 15.7079 21.5934 15.3223C21.8195 15.7662 22.1639 16.1389 22.5887 16.3992C23.0134 16.6594 23.5019 16.7971 24 16.797C24.4981 16.7971 24.9866 16.6594 25.4113 16.3992C25.8361 16.1389 26.1805 15.7662 26.4066 15.3223C27.7957 15.7079 29.0717 16.422 30.1267 17.4045C29.9226 17.8191 29.8283 18.2791 29.8528 18.7406C29.8773 19.2021 30.0199 19.6495 30.2669 20.0401C30.5138 20.4307 30.8569 20.7514 31.2633 20.9715C31.6697 21.1915 32.1257 21.3036 32.5878 21.297C32.8618 22.1707 33.0008 23.0812 33 23.997C33 24.618 32.937 25.2246 32.8173 25.81C32.2826 25.7567 31.7442 25.8642 31.271 26.1187C30.7977 26.3731 30.4112 26.763 30.1607 27.2384C29.9103 27.7138 29.8075 28.2531 29.8653 28.7873C29.9231 29.3215 30.139 29.8263 30.4854 30.2371C29.4089 31.3572 28.0608 32.1795 26.5722 32.6239C26.3974 32.0791 26.0541 31.6039 25.5918 31.2667C25.1296 30.9295 24.5722 30.7478 24 30.7478C23.4278 30.7478 22.8704 30.9295 22.4082 31.2667C21.9459 31.6039 21.6026 32.0791 21.4278 32.6239Z" stroke="#202124" stroke-width="1.44" stroke-linejoin="round"/>
<path d="M24 27.1471C24.4136 27.1471 24.8233 27.0656 25.2054 26.9073C25.5876 26.749 25.9349 26.517 26.2274 26.2245C26.5199 25.932 26.7519 25.5847 26.9102 25.2026C27.0685 24.8204 27.15 24.4108 27.15 23.9971C27.15 23.5834 27.0685 23.1738 26.9102 22.7917C26.7519 22.4095 26.5199 22.0622 26.2274 21.7697C25.9349 21.4772 25.5876 21.2452 25.2054 21.0869C24.8233 20.9286 24.4136 20.8471 24 20.8471C23.1645 20.8471 22.3633 21.179 21.7726 21.7697C21.1818 22.3605 20.85 23.1617 20.85 23.9971C20.85 24.8325 21.1818 25.6338 21.7726 26.2245C22.3633 26.8152 23.1645 27.1471 24 27.1471V27.1471Z" stroke="#202124" stroke-width="1.44" stroke-linejoin="round"/>
</svg>
