<svg width="29" height="28" viewBox="0 0 29 28" fill="none" xmlns="http://www.w3.org/2000/svg">
<path fill-rule="evenodd" clip-rule="evenodd" d="M2.56396 14C2.56396 17.2489 3.85459 20.3647 6.15191 22.6621C8.44923 24.9594 11.5651 26.25 14.814 26.25C18.0629 26.25 21.1787 24.9594 23.476 22.6621C25.7733 20.3647 27.064 17.2489 27.064 14C27.064 10.7511 25.7733 7.63526 23.476 5.33794C21.1787 3.04062 18.0629 1.75 14.814 1.75C11.5651 1.75 8.44923 3.04062 6.15191 5.33794C3.85459 7.63526 2.56396 10.7511 2.56396 14V14ZM28.814 14C28.814 17.713 27.339 21.274 24.7135 23.8995C22.088 26.525 18.527 28 14.814 28C11.1009 28 7.53998 26.525 4.91447 23.8995C2.28896 21.274 0.813965 17.713 0.813965 14C0.813965 10.287 2.28896 6.72601 4.91447 4.10051C7.53998 1.475 11.1009 0 14.814 0C18.527 0 22.088 1.475 24.7135 4.10051C27.339 6.72601 28.814 10.287 28.814 14V14ZM15.689 20.125C15.689 20.3571 15.5968 20.5796 15.4327 20.7437C15.2686 20.9078 15.046 21 14.814 21C14.5819 21 14.3593 20.9078 14.1952 20.7437C14.0312 20.5796 13.939 20.3571 13.939 20.125V9.98725L10.1835 13.7445C10.0192 13.9088 9.79632 14.0011 9.56396 14.0011C9.33161 14.0011 9.10877 13.9088 8.94446 13.7445C8.78016 13.5802 8.68786 13.3574 8.68786 13.125C8.68786 12.8926 8.78016 12.6698 8.94446 12.5055L14.1945 7.2555C14.2757 7.17401 14.3723 7.10936 14.4786 7.06525C14.5849 7.02114 14.6989 6.99844 14.814 6.99844C14.9291 6.99844 15.043 7.02114 15.1493 7.06525C15.2556 7.10936 15.3522 7.17401 15.4335 7.2555L20.6835 12.5055C20.8478 12.6698 20.9401 12.8926 20.9401 13.125C20.9401 13.3574 20.8478 13.5802 20.6835 13.7445C20.5192 13.9088 20.2963 14.0011 20.064 14.0011C19.8316 14.0011 19.6088 13.9088 19.4445 13.7445L15.689 9.98725V20.125Z" fill="#D3D3D3"/>
</svg>
