<svg width="24" height="24" viewBox="0 0 24 24" fill="none" xmlns="http://www.w3.org/2000/svg">
<path d="M11.4766 12.1422C12.0552 12.7089 12.473 13.4191 12.6873 14.2001C12.9015 14.9812 12.9045 15.8052 12.696 16.5878C12.4856 17.3714 12.0718 18.0856 11.4964 18.6577C10.9211 19.2299 10.2047 19.6398 9.41982 19.8459C8.63408 20.0537 7.80747 20.051 7.02307 19.8382C6.23866 19.6254 5.52408 19.2099 4.95113 18.6334C4.11088 17.7698 3.64543 16.6094 3.65594 15.4046C3.66644 14.1997 4.15205 13.0476 5.00723 12.1988C6.7872 10.4286 9.6651 10.4035 11.4757 12.1432L11.4766 12.1422V12.1422Z" stroke="#3F3F3F" stroke-width="1.85462" stroke-linejoin="round"/>
<path d="M11.5381 12.0047L19.4202 4.12256" stroke="#3F3F3F" stroke-width="1.85462" stroke-linecap="round" stroke-linejoin="round"/>
<path d="M14.9248 8.71252L17.442 11.2163L20.3783 8.29524L17.8616 5.7915L14.9248 8.71252V8.71252Z" stroke="#3F3F3F" stroke-width="1.85462" stroke-linejoin="round"/>
</svg>
