<svg width="14" height="15" viewBox="0 0 14 15" fill="none" xmlns="http://www.w3.org/2000/svg">
<path d="M7.00985 0.5C6.09189 0.5 5.18292 0.681052 4.33484 1.03282C3.48675 1.38459 2.71617 1.90018 2.06707 2.55016C0.756163 3.86286 0.0197027 5.64326 0.0197027 7.49969C0.0135918 9.11601 0.572478 10.6835 1.59948 11.9305L0.201447 13.3304C0.104453 13.4289 0.0387481 13.5539 0.0126231 13.6896C-0.013502 13.8254 0.00112324 13.9659 0.0546534 14.0934C0.112712 14.2193 0.206832 14.3252 0.325065 14.3975C0.443298 14.4697 0.580313 14.5052 0.718718 14.4994H7.00985C8.86375 14.4994 10.6417 13.7619 11.9526 12.4492C13.2635 11.1365 14 9.35612 14 7.49969C14 5.64326 13.2635 3.86286 11.9526 2.55016C10.6417 1.23747 8.86375 0.5 7.00985 0.5ZM7.00985 13.0994H2.40334L3.05343 12.4485C3.18362 12.3173 3.2567 12.1399 3.2567 11.955C3.2567 11.7701 3.18362 11.5927 3.05343 11.4615C2.13813 10.546 1.56814 9.34099 1.44058 8.05182C1.31303 6.76266 1.63578 5.46908 2.35387 4.39149C3.07196 3.3139 4.14095 2.51896 5.37871 2.14211C6.61647 1.76526 7.94643 1.8298 9.142 2.32476C10.3376 2.81971 11.3248 3.71445 11.9354 4.85653C12.5461 5.99861 12.7424 7.31738 12.4909 8.58815C12.2395 9.85892 11.5558 11.0031 10.5563 11.8257C9.5569 12.6483 8.30356 13.0984 7.00985 13.0994Z" fill="#898989"/>
</svg>
