<svg width="12" height="12" viewBox="0 0 12 12" fill="none" xmlns="http://www.w3.org/2000/svg">
<g clip-path="url(#clip0_730_7588)">
<path d="M5.99997 0.75C2.68591 0.75 -3.1409e-05 2.93203 -3.1409e-05 5.625C-3.1409e-05 6.74062 0.466375 7.7625 1.23981 8.58516C0.890594 9.50859 0.164031 10.2914 0.152312 10.3008C-0.00237516 10.4648 -0.0445627 10.7039 0.0444999 10.9102C0.133562 11.1164 0.337469 11.25 0.562469 11.25C2.00388 11.25 3.14059 10.6477 3.82263 10.1648C4.49997 10.3781 5.23122 10.5 5.99997 10.5C9.31403 10.5 12 8.31797 12 5.625C12 2.93203 9.31403 0.75 5.99997 0.75ZM5.99997 9.375C5.37419 9.375 4.75544 9.27891 4.16247 9.09141L3.63044 8.92266L3.17341 9.24609C2.83825 9.48281 2.37888 9.74766 1.82575 9.92578C1.99684 9.64219 2.16325 9.32344 2.29216 8.98359L2.54059 8.325L2.05778 7.81406C1.63356 7.36172 1.12497 6.61406 1.12497 5.625C1.12497 3.55781 3.31169 1.875 5.99997 1.875C8.68825 1.875 10.875 3.55781 10.875 5.625C10.875 7.69219 8.68825 9.375 5.99997 9.375Z" fill="#A0A0A0"/>
</g>
<defs>
<clipPath id="clip0_730_7588">
<rect width="12" height="12" fill="white"/>
</clipPath>
</defs>
</svg>
