<svg width="18" height="18" viewBox="0 0 18 18" fill="none" xmlns="http://www.w3.org/2000/svg">
<path d="M3.4 14.6V6.6C3.4 3.5072 5.9072 1 9 1C12.0928 1 14.6 3.5072 14.6 6.6V14.6H3.4ZM1 14.6H17H1Z" fill="#3F3F3F"/>
<path d="M1 14.6H17M3.4 14.6V6.6C3.4 3.5072 5.9072 1 9 1C12.0928 1 14.6 3.5072 14.6 6.6V14.6H3.4Z" stroke="#3F3F3F" stroke-width="1.6" stroke-linecap="round" stroke-linejoin="round"/>
<path d="M9 17C9.53043 17 10.0391 16.7893 10.4142 16.4142C10.7893 16.0391 11 15.5304 11 15V14.6H7V15C7 15.5304 7.21071 16.0391 7.58579 16.4142C7.96086 16.7893 8.46957 17 9 17Z" fill="#3F3F3F" stroke="#3F3F3F" stroke-width="1.6" stroke-linecap="round" stroke-linejoin="round"/>
</svg>
