<svg width="19" height="19" viewBox="0 0 19 19" fill="none" xmlns="http://www.w3.org/2000/svg">
<path d="M9.49935 18.3333C14.378 18.3333 18.3327 14.3786 18.3327 9.49999C18.3327 4.62134 14.378 0.666656 9.49935 0.666656C4.6207 0.666656 0.666016 4.62134 0.666016 9.49999C0.666016 14.3786 4.6207 18.3333 9.49935 18.3333Z" stroke="#3F3F3F" stroke-width="1.2" stroke-linecap="round" stroke-linejoin="round"/>
<path d="M0.666016 9.5H18.3327" stroke="#3F3F3F" stroke-width="1.2" stroke-linecap="round" stroke-linejoin="round"/>
<path d="M9.50013 18.3333C11.4514 18.3333 13.0335 14.3786 13.0335 9.49999C13.0335 4.62134 11.4514 0.666656 9.50013 0.666656C7.54885 0.666656 5.9668 4.62134 5.9668 9.49999C5.9668 14.3786 7.54885 18.3333 9.50013 18.3333Z" stroke="#3F3F3F" stroke-width="1.2" stroke-linecap="round" stroke-linejoin="round"/>
<path d="M3.25391 3.37891C4.07323 4.20039 5.04682 4.85187 6.11873 5.29588C7.19064 5.73989 8.33973 5.96769 9.49996 5.96619C10.6602 5.96769 11.8093 5.73989 12.8812 5.29588C13.9531 4.85187 14.9267 4.20039 15.746 3.37891M15.746 15.6201C14.9267 14.7987 13.9531 14.1472 12.8812 13.7032C11.8093 13.2592 10.6602 13.0314 9.49996 13.0329C8.33973 13.0314 7.19064 13.2592 6.11873 13.7032C5.04682 14.1472 4.07323 14.7987 3.25391 15.6201" stroke="#3F3F3F" stroke-width="1.2" stroke-linecap="round" stroke-linejoin="round"/>
</svg>
